<svg width="117" height="19" viewBox="0 0 117 19" fill="none" xmlns="http://www.w3.org/2000/svg">
<path d="M0.707104 12.7809C2.24992 11.5418 3.45866 10.5274 4.33333 9.73775C5.20799 8.93597 5.94296 8.10382 6.53822 7.24131C7.14562 6.36664 7.44933 5.5102 7.44933 4.67197C7.44933 3.88234 7.25496 3.26279 6.86622 2.81331C6.48962 2.35168 5.87614 2.12086 5.02577 2.12086C4.1997 2.12086 3.55585 2.38205 3.09422 2.90442C2.64473 3.41464 2.40177 4.10101 2.36533 4.96353H0.761771C0.810364 3.60294 1.2234 2.55212 2.00088 1.81108C2.77836 1.07005 3.78059 0.699528 5.00755 0.699528C6.25881 0.699528 7.24888 1.04575 7.97777 1.7382C8.71881 2.43064 9.08933 3.38427 9.08933 4.59908C9.08933 5.60738 8.78562 6.59138 8.17822 7.55108C7.58296 8.49864 6.90266 9.33686 6.13733 10.0658C5.37199 10.7825 4.39407 11.6207 3.20355 12.5804H9.47199V13.9653H0.707104V12.7809ZM11.3889 7.38708C11.3889 5.2976 11.729 3.66975 12.4093 2.50353C13.0896 1.32516 14.2801 0.735973 15.9809 0.735973C17.6695 0.735973 18.8539 1.32516 19.5342 2.50353C20.2145 3.66975 20.5547 5.2976 20.5547 7.38708C20.5547 9.51301 20.2145 11.1652 19.5342 12.3435C18.8539 13.5219 17.6695 14.1111 15.9809 14.1111C14.2801 14.1111 13.0896 13.5219 12.4093 12.3435C11.729 11.1652 11.3889 9.51301 11.3889 7.38708ZM18.9147 7.38708C18.9147 6.33019 18.8418 5.43731 18.696 4.70842C18.5624 3.96738 18.2769 3.37212 17.8396 2.92264C17.4144 2.47316 16.7948 2.24842 15.9809 2.24842C15.1548 2.24842 14.5231 2.47316 14.0858 2.92264C13.6606 3.37212 13.3751 3.96738 13.2293 4.70842C13.0957 5.43731 13.0289 6.33019 13.0289 7.38708C13.0289 8.48042 13.0957 9.3976 13.2293 10.1386C13.3751 10.8797 13.6606 11.4749 14.0858 11.9244C14.5231 12.3739 15.1548 12.5986 15.9809 12.5986C16.7948 12.5986 17.4144 12.3739 17.8396 11.9244C18.2769 11.4749 18.5624 10.8797 18.696 10.1386C18.8418 9.3976 18.9147 8.48042 18.9147 7.38708ZM22.6307 12.7809C24.1735 11.5418 25.3823 10.5274 26.2569 9.73775C27.1316 8.93597 27.8666 8.10382 28.4618 7.24131C29.0692 6.36664 29.3729 5.5102 29.3729 4.67197C29.3729 3.88234 29.1786 3.26279 28.7898 2.81331C28.4132 2.35168 27.7998 2.12086 26.9494 2.12086C26.1233 2.12086 25.4795 2.38205 25.0178 2.90442C24.5683 3.41464 24.3254 4.10101 24.2889 4.96353H22.6854C22.734 3.60294 23.147 2.55212 23.9245 1.81108C24.702 1.07005 25.7042 0.699528 26.9312 0.699528C28.1824 0.699528 29.1725 1.04575 29.9014 1.7382C30.6424 2.43064 31.0129 3.38427 31.0129 4.59908C31.0129 5.60738 30.7092 6.59138 30.1018 7.55108C29.5066 8.49864 28.8263 9.33686 28.0609 10.0658C27.2956 10.7825 26.3177 11.6207 25.1272 12.5804H31.3956V13.9653H22.6307V12.7809ZM33.276 4.25286C33.3611 3.13523 33.7923 2.26057 34.5698 1.62886C35.3473 0.997158 36.3556 0.681306 37.5947 0.681306C38.4208 0.681306 39.1315 0.833158 39.7267 1.13686C40.3341 1.42842 40.7897 1.82931 41.0934 2.33953C41.4092 2.84975 41.5672 3.42679 41.5672 4.07064C41.5672 4.82382 41.3485 5.47375 40.9112 6.02042C40.486 6.56708 39.9272 6.91938 39.2347 7.07731V7.16842C40.0243 7.36279 40.65 7.74545 41.1116 8.31642C41.5732 8.88738 41.804 9.63449 41.804 10.5578C41.804 11.2502 41.6461 11.8758 41.3303 12.4346C41.0144 12.9813 40.5406 13.4126 39.9089 13.7284C39.2772 14.0443 38.518 14.2022 37.6312 14.2022C36.3435 14.2022 35.2866 13.8681 34.4605 13.2C33.6344 12.5197 33.1728 11.56 33.0756 10.3209H34.6792C34.7642 11.0498 35.0618 11.645 35.572 12.1066C36.0823 12.5683 36.7626 12.7991 37.6129 12.7991C38.4633 12.7991 39.1072 12.5804 39.5445 12.1431C39.994 11.6936 40.2187 11.1166 40.2187 10.412C40.2187 9.50086 39.915 8.84486 39.3076 8.44397C38.7002 8.04308 37.783 7.84264 36.556 7.84264H36.1369V6.45775H36.5743C37.6919 6.4456 38.5362 6.26338 39.1072 5.91108C39.6781 5.54664 39.9636 4.98782 39.9636 4.23464C39.9636 3.59079 39.751 3.07449 39.3258 2.68575C38.9128 2.29701 38.3175 2.10264 37.54 2.10264C36.7869 2.10264 36.1795 2.29701 35.7178 2.68575C35.2562 3.07449 34.9829 3.59686 34.8978 4.25286H33.276ZM55.0055 1.28264C56.2324 1.28264 57.3258 1.56205 58.2855 2.12086C59.2452 2.66753 59.9862 3.43286 60.5086 4.41686C61.0431 5.38871 61.3104 6.50027 61.3104 7.75153C61.3104 9.00279 61.0431 10.1204 60.5086 11.1044C59.9862 12.0763 59.2452 12.8416 58.2855 13.4004C57.3258 13.9471 56.2324 14.2204 55.0055 14.2204C53.7664 14.2204 52.667 13.9471 51.7073 13.4004C50.7476 12.8416 50.0004 12.0763 49.4659 11.1044C48.9314 10.1204 48.6641 9.00279 48.6641 7.75153C48.6641 6.50027 48.9314 5.38871 49.4659 4.41686C50.0004 3.43286 50.7476 2.66753 51.7073 2.12086C52.667 1.56205 53.7664 1.28264 55.0055 1.28264ZM55.0055 2.01153C53.8757 2.01153 52.8917 2.25449 52.0535 2.74042C51.2153 3.2142 50.5714 3.88234 50.1219 4.74486C49.6724 5.60738 49.4477 6.6096 49.4477 7.75153C49.4477 8.88131 49.6724 9.88353 50.1219 10.7582C50.5714 11.6207 51.2153 12.2949 52.0535 12.7809C52.8917 13.2668 53.8757 13.5098 55.0055 13.5098C56.1231 13.5098 57.095 13.2668 57.921 12.7809C58.7593 12.2949 59.4031 11.6207 59.8526 10.7582C60.3021 9.88353 60.5268 8.88131 60.5268 7.75153C60.5268 6.6096 60.3021 5.60738 59.8526 4.74486C59.4031 3.88234 58.7593 3.2142 57.921 2.74042C57.095 2.25449 56.1231 2.01153 55.0055 2.01153ZM54.969 3.52397C54.2401 3.52397 53.572 3.69405 52.9646 4.03419C52.3693 4.37434 51.8956 4.86634 51.5433 5.51019C51.191 6.1419 51.0148 6.88294 51.0148 7.73331C51.0148 8.58368 51.191 9.33079 51.5433 9.97464C51.8956 10.6063 52.3693 11.0983 52.9646 11.4506C53.572 11.7908 54.2401 11.9609 54.969 11.9609C55.8801 11.9609 56.6698 11.7179 57.3379 11.232C58.0061 10.7339 58.4616 10.0718 58.7046 9.24575H57.1739C56.8095 10.254 56.0745 10.7582 54.969 10.7582C54.2401 10.7582 53.6449 10.497 53.1833 9.97464C52.7216 9.45227 52.4908 8.71123 52.4908 7.75153C52.4908 6.77968 52.7216 6.03257 53.1833 5.51019C53.6449 4.98782 54.2401 4.72664 54.969 4.72664C55.5036 4.72664 55.9652 4.86027 56.3539 5.12753C56.7427 5.38264 57.016 5.75316 57.1739 6.23908H58.7046C58.4738 5.37657 58.0243 4.70842 57.3561 4.23464C56.688 3.76086 55.8923 3.52397 54.969 3.52397ZM72.4914 14.2386C71.6532 14.2386 70.9 14.0929 70.2319 13.8013C69.5759 13.4976 69.0596 13.0846 68.683 12.5622C68.3064 12.0277 68.112 11.4142 68.0999 10.7218H69.8674C69.9282 11.317 70.1711 11.8212 70.5963 12.2342C71.0336 12.6351 71.6653 12.8355 72.4914 12.8355C73.281 12.8355 73.9006 12.6412 74.3501 12.2524C74.8117 11.8515 75.0425 11.3413 75.0425 10.7218C75.0425 10.2358 74.9089 9.84101 74.6416 9.53731C74.3744 9.2336 74.0403 9.00279 73.6394 8.84486C73.2385 8.68694 72.6979 8.51686 72.0176 8.33464C71.1794 8.11597 70.5052 7.89731 69.995 7.67864C69.4969 7.45997 69.0656 7.11982 68.7012 6.6582C68.3489 6.18442 68.1727 5.55271 68.1727 4.76308C68.1727 4.07064 68.3489 3.45716 68.7012 2.92264C69.0535 2.38812 69.5455 1.97508 70.1772 1.68353C70.821 1.39197 71.556 1.2462 72.3821 1.2462C73.5726 1.2462 74.5444 1.54382 75.2976 2.13908C76.063 2.73434 76.4942 3.52397 76.5914 4.50797H74.7692C74.7084 4.02205 74.4533 3.59686 74.0039 3.23242C73.5544 2.85582 72.9591 2.66753 72.2181 2.66753C71.5256 2.66753 70.9607 2.84975 70.5234 3.21419C70.0861 3.56649 69.8674 4.06457 69.8674 4.70842C69.8674 5.17005 69.995 5.54664 70.2501 5.8382C70.5173 6.12975 70.8393 6.35449 71.2159 6.51242C71.6046 6.65819 72.1452 6.82827 72.8376 7.02264C73.6759 7.25345 74.3501 7.48427 74.8603 7.71508C75.3705 7.93375 75.8079 8.27997 76.1723 8.75375C76.5367 9.21538 76.719 9.84708 76.719 10.6489C76.719 11.2684 76.555 11.8515 76.227 12.3982C75.899 12.9449 75.413 13.3883 74.7692 13.7284C74.1253 14.0686 73.3661 14.2386 72.4914 14.2386ZM80.8174 5.96575C81.1454 5.39479 81.6313 4.92101 82.2752 4.54442C82.9312 4.15568 83.6904 3.96131 84.553 3.96131C85.4398 3.96131 86.2415 4.1739 86.9583 4.59908C87.6872 5.02427 88.2581 5.6256 88.6712 6.40308C89.0842 7.16842 89.2907 8.06131 89.2907 9.08175C89.2907 10.09 89.0842 10.989 88.6712 11.7786C88.2581 12.5683 87.6872 13.1818 86.9583 13.6191C86.2415 14.0564 85.4398 14.2751 84.553 14.2751C83.7026 14.2751 82.9494 14.0868 82.2934 13.7102C81.6495 13.3215 81.1575 12.8416 80.8174 12.2706V18.8489H79.1592V4.12531H80.8174V5.96575ZM87.5961 9.08175C87.5961 8.32857 87.4442 7.67257 87.1405 7.11375C86.8368 6.55494 86.4238 6.12975 85.9014 5.8382C85.3912 5.54664 84.8263 5.40086 84.2067 5.40086C83.5993 5.40086 83.0344 5.55271 82.5121 5.85642C82.0018 6.14797 81.5888 6.57923 81.273 7.15019C80.9693 7.70901 80.8174 8.35894 80.8174 9.09997C80.8174 9.85316 80.9693 10.5152 81.273 11.0862C81.5888 11.645 82.0018 12.0763 82.5121 12.38C83.0344 12.6715 83.5993 12.8173 84.2067 12.8173C84.8263 12.8173 85.3912 12.6715 85.9014 12.38C86.4238 12.0763 86.8368 11.645 87.1405 11.0862C87.4442 10.5152 87.5961 9.84708 87.5961 9.08175ZM95.8285 14.2751C94.8931 14.2751 94.0427 14.0625 93.2774 13.6373C92.5242 13.2121 91.929 12.6108 91.4916 11.8333C91.0665 11.0437 90.8539 10.1326 90.8539 9.09997C90.8539 8.07953 91.0725 7.18057 91.5099 6.40308C91.9593 5.61345 92.5667 5.01212 93.3321 4.59908C94.0974 4.1739 94.9539 3.96131 95.9014 3.96131C96.849 3.96131 97.7054 4.1739 98.4707 4.59908C99.2361 5.01212 99.8374 5.60738 100.275 6.38486C100.724 7.16234 100.949 8.06738 100.949 9.09997C100.949 10.1326 100.718 11.0437 100.257 11.8333C99.807 12.6108 99.1936 13.2121 98.4161 13.6373C97.6386 14.0625 96.7761 14.2751 95.8285 14.2751ZM95.8285 12.8173C96.4238 12.8173 96.9826 12.6776 97.505 12.3982C98.0273 12.1188 98.4465 11.6997 98.7623 11.1409C99.0903 10.582 99.2543 9.90175 99.2543 9.09997C99.2543 8.2982 99.0964 7.6179 98.7805 7.05908C98.4647 6.50027 98.0516 6.08723 97.5414 5.81997C97.0312 5.54057 96.4785 5.40086 95.8832 5.40086C95.2758 5.40086 94.717 5.54057 94.2067 5.81997C93.7087 6.08723 93.3078 6.50027 93.0041 7.05908C92.7004 7.6179 92.5485 8.2982 92.5485 9.09997C92.5485 9.9139 92.6943 10.6003 92.9859 11.1591C93.2896 11.7179 93.6905 12.137 94.1885 12.4164C94.6866 12.6837 95.2333 12.8173 95.8285 12.8173ZM105.152 5.49197V11.3778C105.152 11.8637 105.255 12.2099 105.462 12.4164C105.668 12.6108 106.027 12.708 106.537 12.708H107.758V14.1111H106.263C105.34 14.1111 104.648 13.8985 104.186 13.4733C103.724 13.0481 103.494 12.3496 103.494 11.3778V5.49197H102.2V4.12531H103.494V1.61064H105.152V4.12531H107.758V5.49197H105.152ZM113.302 14.2751C112.537 14.2751 111.85 14.1475 111.243 13.8924C110.635 13.6252 110.156 13.2607 109.803 12.7991C109.451 12.3253 109.257 11.7847 109.22 11.1773H110.933C110.982 11.6754 111.212 12.0823 111.625 12.3982C112.051 12.714 112.603 12.872 113.284 12.872C113.915 12.872 114.413 12.7323 114.778 12.4529C115.142 12.1735 115.325 11.8212 115.325 11.396C115.325 10.9586 115.13 10.6367 114.741 10.4302C114.353 10.2115 113.751 9.99894 112.937 9.79242C112.196 9.59805 111.589 9.40368 111.115 9.20931C110.654 9.00279 110.253 8.70516 109.913 8.31642C109.585 7.91553 109.421 7.39316 109.421 6.74931C109.421 6.23908 109.572 5.77138 109.876 5.34619C110.18 4.92101 110.611 4.58694 111.17 4.34397C111.729 4.08886 112.367 3.96131 113.083 3.96131C114.189 3.96131 115.082 4.24071 115.762 4.79953C116.442 5.35834 116.807 6.12368 116.855 7.09553H115.197C115.161 6.57316 114.948 6.15405 114.559 5.8382C114.183 5.52234 113.672 5.36442 113.029 5.36442C112.433 5.36442 111.96 5.49197 111.607 5.74708C111.255 6.0022 111.079 6.33627 111.079 6.74931C111.079 7.07731 111.182 7.35064 111.389 7.56931C111.607 7.77582 111.875 7.9459 112.19 8.07953C112.518 8.20101 112.968 8.34071 113.539 8.49864C114.256 8.69301 114.839 8.88738 115.288 9.08175C115.738 9.26397 116.12 9.54338 116.436 9.91997C116.764 10.2966 116.934 10.7886 116.946 11.396C116.946 11.9426 116.795 12.4346 116.491 12.872C116.187 13.3093 115.756 13.6555 115.197 13.9106C114.65 14.1536 114.019 14.2751 113.302 14.2751Z" fill="#212121" fill-opacity="0.7"/>
</svg>
